<svg width="20" height="8" viewBox="0 0 20 8" fill="none" xmlns="http://www.w3.org/2000/svg">
<path d="M8.08963 0.766602C8.04163 0.766493 7.99408 0.776306 7.94972 0.795477C7.90536 0.814647 7.86506 0.842797 7.83116 0.878305C7.79725 0.913813 7.7704 0.955978 7.75215 1.00237C7.7339 1.04877 7.72461 1.09848 7.72482 1.14864V7.2975C7.72471 7.34759 7.73408 7.39721 7.75237 7.44351C7.77067 7.48981 7.79754 7.53188 7.83144 7.5673C7.86533 7.60272 7.90559 7.63079 7.9499 7.64991C7.99421 7.66903 8.04169 7.67882 8.08963 7.67871H19.192V7.68036C19.2399 7.68047 19.2874 7.67068 19.3317 7.65156C19.376 7.63244 19.4163 7.60437 19.4502 7.56895C19.4841 7.53353 19.511 7.49146 19.5293 7.44516C19.5476 7.39886 19.5569 7.34924 19.5568 7.29915V1.14864C19.5569 1.09855 19.5476 1.04893 19.5293 1.00263C19.511 0.956327 19.4841 0.914259 19.4502 0.878839C19.4163 0.843418 19.376 0.815343 19.3317 0.796224C19.2874 0.777105 19.2399 0.767319 19.192 0.767428L8.08963 0.766602ZM3.91558 0.773203C3.08497 0.776601 2.28595 1.10626 1.67716 1.69672C1.06837 2.28718 0.694333 3.09528 0.629304 3.96056C0.564276 4.82584 0.813014 5.68504 1.32613 6.36756C1.83925 7.05009 2.57923 7.50604 3.39916 7.64488V5.2289H2.55345V4.22967H3.39837V3.46725C3.39837 2.60086 3.88873 2.11981 4.64521 2.11981C5.00608 2.11981 5.38195 2.19243 5.38195 2.19243V3.03736H4.96817C4.55756 3.03736 4.42569 3.30717 4.42569 3.57864V4.22802H5.34483L5.19717 5.22642H4.42411V7.64323C5.24693 7.50916 5.99106 7.05565 6.50784 6.37329C7.02463 5.69093 7.27602 4.82995 7.2118 3.96235C7.14758 3.09475 6.77247 2.28441 6.16142 1.69321C5.55036 1.102 4.74835 0.773455 3.91558 0.773203ZM9.57495 2.75929H10.0764V5.2289H11.3619V5.68602H9.57495V2.75929ZM11.9004 2.75929H12.4019V5.68602H11.9004V2.75929ZM12.8828 2.75929H13.4371L14.1422 5.07625H14.1762L14.8758 2.75929H15.4088L14.4399 5.68602H13.8611L12.8828 2.75929ZM15.8913 2.76176H17.7043V3.21311H16.3935V3.98873H17.6332V4.41532H16.3935V5.23467H17.7043V5.6885H15.8913V2.76176Z" fill="#139FDD"/>
</svg>
