<svg width="21" height="6" viewBox="0 0 21 6" fill="none" xmlns="http://www.w3.org/2000/svg">
<g clip-path="url(#clip0_2916_10550)">
<path d="M7.00475 1.13877C6.96827 0.997745 6.89711 0.869176 6.79836 0.76587C6.69961 0.662565 6.57672 0.588127 6.44192 0.549971C5.94841 0.40918 3.96237 0.40918 3.96237 0.40918C3.96237 0.40918 1.97626 0.413452 1.48282 0.554244C1.34803 0.592406 1.22514 0.666846 1.1264 0.770151C1.02766 0.873457 0.956513 1.00202 0.920037 1.14305C0.770766 2.06043 0.712854 3.45821 0.924121 4.33885C0.960597 4.47988 1.03175 4.60844 1.13049 4.71175C1.22923 4.81505 1.35211 4.88949 1.4869 4.92765C1.98038 5.06845 3.96646 5.06845 3.96646 5.06845C3.96646 5.06845 5.95253 5.06845 6.44601 4.92765C6.5808 4.88949 6.70368 4.81505 6.80242 4.71175C6.90116 4.60844 6.97231 4.47988 7.00879 4.33885C7.16619 3.42021 7.21473 2.02328 7.00471 1.13881L7.00475 1.13877Z" fill="#FF0000"/>
<path d="M3.33008 3.73707L4.97767 2.73867L3.33008 1.74023V3.73707Z" fill="#DBDBDB"/>
<path d="M19.8911 1.76187C20.1073 1.76187 20.2704 1.80452 20.3846 1.88557C20.4988 1.96667 20.5804 2.09465 20.6293 2.26962C20.6782 2.44455 20.6986 2.68345 20.6986 2.99067V3.48991H19.6505V3.64348L19.6668 4.06589C19.6791 4.15977 19.6995 4.22804 19.7321 4.27069C19.7647 4.31337 19.8177 4.3347 19.8871 4.3347C19.9809 4.3347 20.0461 4.29632 20.0787 4.21954C20.1154 4.14272 20.1317 4.0147 20.1358 3.83977L20.6782 3.87391C20.6823 3.8995 20.6823 3.93364 20.6823 3.97629C20.6823 4.2451 20.613 4.44566 20.4702 4.57791C20.3275 4.71015 20.1317 4.77843 19.8748 4.77843C19.5649 4.77843 19.3487 4.67606 19.2264 4.47553C19.1041 4.27496 19.0388 3.9592 19.0388 3.53682V3.02053C19.0526 2.29521 19.1746 1.76399 19.8911 1.76187ZM12.3505 1.81734V3.95497C12.3505 4.08298 12.3628 4.17686 12.3913 4.23232C12.4492 4.35093 12.5993 4.32062 12.6809 4.26218C12.7279 4.22889 12.7659 4.1833 12.791 4.12994V1.81729H13.4149V4.73148H12.9255L12.8725 4.37307H12.8603C12.7257 4.64187 12.5259 4.77839 12.2608 4.77839C11.8528 4.77734 11.753 4.46979 11.7292 4.15745L11.7277 4.13543C11.7247 4.08812 11.723 4.04074 11.7225 3.99334V1.81734H12.3505H12.3505ZM15.5682 1.81734V3.95497C15.5682 4.08298 15.5805 4.17686 15.609 4.23232C15.667 4.35093 15.817 4.32062 15.8986 4.26218C15.9456 4.22889 15.9836 4.1833 16.0087 4.12994V1.81729H16.6326V4.73148H16.1432L16.0902 4.37307H16.078C15.9434 4.64187 15.7436 4.77839 15.4785 4.77839C15.0705 4.77734 14.9707 4.46979 14.9469 4.15745L14.9454 4.13543C14.9424 4.08812 14.9407 4.04074 14.9402 3.99334V1.81734H15.5682ZM10.5398 1.76187C10.7437 1.76187 10.9109 1.80452 11.0333 1.89412C11.1556 1.98372 11.2494 2.12028 11.3065 2.30799C11.3636 2.49574 11.3921 2.74745 11.3921 3.05895V3.48132C11.3921 3.79281 11.3636 4.0403 11.3065 4.228C11.2494 4.41579 11.1597 4.55231 11.0333 4.64192C10.9069 4.72724 10.7355 4.77416 10.5235 4.77416C10.3032 4.77843 10.132 4.73152 10.0056 4.64619C9.87916 4.55659 9.78939 4.42003 9.73642 4.23232C9.68337 4.04457 9.65891 3.79708 9.65891 3.48563V3.06318C9.65891 2.75169 9.68745 2.4957 9.74863 2.30795C9.80981 2.11597 9.90358 1.97941 10.0341 1.89412C10.1646 1.80875 10.3318 1.76183 10.5398 1.76183V1.76187ZM17.6114 0.592773V2.12879H17.6155C17.6726 2.01786 17.746 1.92826 17.848 1.85998C17.9432 1.79299 18.0554 1.75734 18.1701 1.7576C18.321 1.7576 18.4352 1.80024 18.5209 1.8813C18.6065 1.96667 18.6677 2.09892 18.7044 2.28239C18.7399 2.46013 18.7602 2.70595 18.7614 3.01594L18.7614 3.04617V3.50696C18.7614 3.93788 18.7084 4.25791 18.6105 4.46271C18.5086 4.66751 18.3537 4.76993 18.1416 4.76993C18.0233 4.76993 17.9173 4.74006 17.8194 4.6846C17.7329 4.63183 17.6611 4.55616 17.6113 4.46519L17.6032 4.44989H17.591L17.5258 4.72724H17.0078V0.592814H17.6114V0.592773ZM15.1155 0.74211V1.27114H14.4957V4.73148H13.8839V1.27118H13.26V0.742151H15.1156L15.1155 0.74211ZM8.39056 0.74211L8.39095 0.743738C8.3969 0.771449 8.47936 1.15496 8.57006 1.60179L8.57721 1.63719L8.58802 1.6907L8.59526 1.72663L8.59887 1.74466L8.60611 1.78079L8.60973 1.7989L8.61692 1.83516L8.62742 1.88818C8.68868 2.19759 8.74714 2.50791 8.7821 2.73041H8.79844C8.83192 2.53081 8.88058 2.2754 8.93246 2.01461L8.94607 1.94649C8.95292 1.91239 8.95976 1.87829 8.96669 1.84427L8.97734 1.7915C9.0478 1.4459 9.12036 1.10078 9.19503 0.756149L9.1962 0.750655L9.19806 0.74211H9.82202L9.10017 3.43444V4.72724H8.48437V3.43868H8.48029L7.7666 0.74207H8.39056V0.74211ZM10.5275 2.21412C10.4419 2.21412 10.3848 2.26107 10.3481 2.35922C10.3114 2.45733 10.2951 2.60666 10.2951 2.81578V3.72457C10.2951 3.93792 10.3114 4.09576 10.344 4.18967C10.3767 4.28351 10.4379 4.33046 10.5275 4.33046C10.6132 4.33046 10.6744 4.28351 10.7111 4.18967C10.7478 4.09576 10.7641 3.93792 10.7641 3.72457V2.81573C10.7641 2.60666 10.7478 2.45305 10.7111 2.35918C10.6744 2.26107 10.6132 2.21412 10.5275 2.21412ZM17.7215 2.29949C17.6718 2.3475 17.6365 2.40671 17.6154 2.48072L17.6114 2.49574V4.15122C17.662 4.24082 17.7338 4.30056 17.8602 4.30483C17.9254 4.30483 17.9784 4.27923 18.0192 4.22805C18.06 4.17686 18.0886 4.09149 18.1049 3.97202C18.1205 3.85735 18.1287 3.69938 18.1293 3.49821V3.09309C18.1293 2.86269 18.1211 2.68776 18.1089 2.56402C18.0926 2.44028 18.0723 2.35067 18.0355 2.29949C17.9646 2.19279 17.8112 2.19409 17.7215 2.29949ZM19.8789 2.20134C19.8096 2.20561 19.7606 2.22693 19.7321 2.26535C19.6995 2.30799 19.6791 2.372 19.6668 2.46587C19.6548 2.55783 19.6507 2.87929 19.6505 2.89215V3.10163H20.1073V2.91689V2.92043C20.107 2.98501 20.1057 2.88296 20.1029 2.75767L20.1025 2.74082C20.1 2.63071 20.0962 2.50795 20.091 2.46587C20.0787 2.36772 20.0583 2.29944 20.0257 2.26107C19.9931 2.22266 19.9441 2.20134 19.8789 2.20134H19.8789Z" fill="black"/>
</g>
<defs>
<clipPath id="clip0_2916_10550">
<rect width="19.9133" height="4.72018" fill="white" transform="translate(0.786133 0.40918)"/>
</clipPath>
</defs>
</svg>
