<svg width="25" height="26" viewBox="0 0 25 26" fill="none" xmlns="http://www.w3.org/2000/svg">
<path d="M12.1553 8.83829C9.93782 8.83829 8.12817 10.7485 8.12817 13.0892C8.12817 15.43 9.93782 17.3402 12.1553 17.3402C14.3728 17.3402 16.1825 15.43 16.1825 13.0892C16.1825 10.7485 14.3728 8.83829 12.1553 8.83829ZM24.2337 13.0892C24.2337 11.3289 24.2489 9.58452 24.1552 7.82737C24.0615 5.7864 23.6205 3.97504 22.2066 2.48258C20.7897 0.986927 19.0767 0.524519 17.1432 0.42566C15.4755 0.3268 13.823 0.342745 12.1583 0.342745C10.4907 0.342745 8.83813 0.3268 7.17349 0.42566C5.23998 0.524519 3.52398 0.990116 2.1101 2.48258C0.693196 3.97822 0.255134 5.7864 0.161479 7.82737C0.0678242 9.5877 0.0829299 11.3321 0.0829299 13.0892C0.0829299 14.8464 0.0678242 16.594 0.161479 18.3511C0.255134 20.3921 0.696217 22.2035 2.1101 23.6959C3.527 25.1916 5.23998 25.654 7.17349 25.7528C8.84115 25.8517 10.4937 25.8357 12.1583 25.8357C13.826 25.8357 15.4785 25.8517 17.1432 25.7528C19.0767 25.654 20.7927 25.1884 22.2066 23.6959C23.6235 22.2003 24.0615 20.3921 24.1552 18.3511C24.2519 16.594 24.2337 14.8496 24.2337 13.0892ZM12.1553 19.6299C8.72635 19.6299 5.959 16.7088 5.959 13.0892C5.959 9.46971 8.72635 6.54857 12.1553 6.54857C15.5843 6.54857 18.3516 9.46971 18.3516 13.0892C18.3516 16.7088 15.5843 19.6299 12.1553 19.6299ZM18.6054 7.80823C17.8048 7.80823 17.1583 7.12578 17.1583 6.28069C17.1583 5.43561 17.8048 4.75316 18.6054 4.75316C19.406 4.75316 20.0525 5.43561 20.0525 6.28069C20.0528 6.48136 20.0155 6.68011 19.9428 6.86556C19.8702 7.051 19.7636 7.21949 19.6292 7.36139C19.4948 7.50328 19.3352 7.61579 19.1595 7.69247C18.9838 7.76915 18.7955 7.80849 18.6054 7.80823Z" fill="#139FDD"/>
</svg>
