<svg width="27" height="27" viewBox="0 0 27 27" fill="none" xmlns="http://www.w3.org/2000/svg">
<path d="M13.5824 0C6.16986 0 0.164062 6.0058 0.164062 13.4184C0.164062 20.8309 6.16986 26.8367 13.5824 26.8367C20.995 26.8367 27.0008 20.8309 27.0008 13.4184C27.0008 6.0058 20.995 0 13.5824 0ZM20.1726 9.19266L17.9705 19.5703C17.8081 20.3061 17.3699 20.4847 16.7585 20.1384L13.4039 17.6657L11.7861 19.224C11.6075 19.4025 11.4561 19.554 11.1098 19.554L11.3478 16.1399L17.5647 10.5237C17.8352 10.2856 17.5051 10.1503 17.148 10.3884L9.46494 15.2255L6.15363 14.1921C5.43402 13.9648 5.41779 13.4725 6.30513 13.1262L19.242 8.13759C19.8425 7.92116 20.3674 8.28368 20.1726 9.19266Z" fill="#139FDD"/>
</svg>
