<svg width="27" height="27" viewBox="0 0 27 27" fill="none" xmlns="http://www.w3.org/2000/svg">
<path d="M13.4594 0C6.04933 0 0.0410156 6.00831 0.0410156 13.4184C0.0410156 20.8284 6.04933 26.8367 13.4594 26.8367C20.8694 26.8367 26.8778 20.8284 26.8778 13.4184C26.8778 6.00831 20.8694 0 13.4594 0ZM19.908 10.1147C19.917 10.2555 19.917 10.4022 19.917 10.546C19.917 14.9429 16.5684 20.0077 10.4492 20.0077C8.56228 20.0077 6.8131 19.4596 5.33947 18.5161C5.60904 18.5461 5.86662 18.5581 6.14218 18.5581C7.69967 18.5581 9.13136 18.0309 10.2725 17.1384C8.81088 17.1084 7.58286 16.15 7.16353 14.8321C7.67571 14.907 8.13696 14.907 8.66411 14.7722C7.91151 14.6193 7.23504 14.2105 6.74965 13.6154C6.26426 13.0203 5.99987 12.2754 6.00141 11.5074V11.4655C6.4417 11.7141 6.95986 11.8669 7.50199 11.8878C7.04625 11.5841 6.6725 11.1726 6.41388 10.6899C6.15525 10.2071 6.01975 9.66797 6.01938 9.1203C6.01938 8.5003 6.18112 7.93421 6.47165 7.443C7.30701 8.47135 8.34941 9.31241 9.53111 9.91152C10.7128 10.5106 12.0073 10.8544 13.3306 10.9204C12.8603 8.65904 14.5496 6.82899 16.5804 6.82899C17.5388 6.82899 18.4014 7.23034 19.0094 7.8773C19.7612 7.73653 20.4801 7.45498 21.121 7.07759C20.8724 7.84735 20.3513 8.4973 19.6594 8.90764C20.3303 8.83576 20.9773 8.65005 21.5763 8.38947C21.124 9.0544 20.5579 9.64445 19.908 10.1147Z" fill="#139FDD"/>
</svg>
