<svg width="30" height="23" viewBox="0 0 30 23" fill="none" xmlns="http://www.w3.org/2000/svg">
<path d="M29.3371 4.03545C29.1691 3.38703 28.8401 2.79582 28.3831 2.321C27.9262 1.84618 27.3572 1.5044 26.7331 1.32987C24.4348 0.683594 15.1997 0.683594 15.1997 0.683594C15.1997 0.683594 5.96448 0.683594 3.66623 1.32987C3.04216 1.5044 2.47316 1.84618 2.01617 2.321C1.55918 2.79582 1.23023 3.38703 1.06225 4.03545C0.633116 6.47076 0.424868 8.94254 0.440246 11.4183C0.424868 13.894 0.633116 16.3658 1.06225 18.8011C1.23023 19.4495 1.55918 20.0408 2.01617 20.5156C2.47316 20.9904 3.04216 21.3322 3.66623 21.5067C5.96448 22.153 15.1997 22.153 15.1997 22.153C15.1997 22.153 24.4348 22.153 26.7331 21.5067C27.3572 21.3322 27.9262 20.9904 28.3831 20.5156C28.8401 20.0408 29.1691 19.4495 29.3371 18.8011C29.7662 16.3658 29.9744 13.894 29.9591 11.4183C29.9744 8.94254 29.7662 6.47076 29.3371 4.03545ZM12.2478 16.0189V6.81771L19.9121 11.4183L12.2478 16.0189Z" fill="#139FDD"/>
</svg>
