<svg width="192" height="47" viewBox="0 0 192 47" fill="none" xmlns="http://www.w3.org/2000/svg">
<path fill-rule="evenodd" clip-rule="evenodd" d="M23.5014 1C36.4819 1 47.0027 11.1555 47.0027 23.6815C47.0027 36.2074 36.4819 46.3629 23.5014 46.3629C10.5208 46.3629 0 36.2074 0 23.6815C0 11.1555 10.5208 1 23.5014 1Z" fill="#139FDD"/>
<path fill-rule="evenodd" clip-rule="evenodd" d="M23.5011 6.93349C33.0884 6.93349 40.8573 14.4344 40.8573 23.6889C40.8573 32.9433 33.0884 40.4443 23.5011 40.4443C13.9139 40.4443 6.14504 32.9433 6.14504 23.6889C6.14504 14.4344 13.9139 6.93349 23.5011 6.93349ZM23.5011 6.36523C33.4131 6.36523 41.4417 14.1178 41.4417 23.6808C41.4417 33.2437 33.405 40.9963 23.5011 40.9963C13.5892 40.9963 5.56055 33.2437 5.56055 23.6808C5.56055 14.1178 13.5892 6.36523 23.5011 6.36523Z" fill="white"/>
<path fill-rule="evenodd" clip-rule="evenodd" d="M26.6897 26.6697C27.3148 26.483 27.8993 26.2638 28.4026 26.0365C27.8749 26.3206 27.2986 26.5723 26.6816 26.7915C26.6816 26.7509 26.6897 26.7103 26.6897 26.6697ZM13.287 22.2373C10.1129 24.5915 13.6767 26.3287 15.9172 26.9782C18.3445 27.6763 21.1858 27.6925 23.7186 27.3191C23.7104 27.3922 23.7023 27.4652 23.6942 27.5464C20.9503 27.9929 17.9305 27.8955 15.4789 27.2055C13.0841 26.5236 9.50408 24.5509 13.287 22.2373Z" fill="white"/>
<path fill-rule="evenodd" clip-rule="evenodd" d="M25.8796 31.3854C26.8457 31.1176 27.7792 30.7766 28.6803 30.3707C27.7954 30.8497 26.8375 31.2312 25.839 31.5316L25.8796 31.3854ZM14.2791 27.0586C12.5419 28.3493 12.7692 29.3803 13.7027 30.1678C15.0666 31.3124 17.1123 31.8482 19.0606 32.0268C20.3838 32.1485 21.7314 32.1161 23.0627 31.9456L23.0302 32.1404C21.1956 32.3921 19.3203 32.3758 17.5993 32.0998C16.0975 31.8644 14.6769 31.3773 13.5891 30.5249C12.4445 29.6239 12.1035 28.3818 14.2791 27.0586Z" fill="white"/>
<path fill-rule="evenodd" clip-rule="evenodd" d="M26.7731 22.6834C27.1871 22.5454 27.5687 22.3993 27.9096 22.245C27.5605 22.4399 27.179 22.6103 26.7731 22.7646V22.6834ZM15.1969 19.0547C12.5262 21.0355 15.5298 22.4967 17.405 23.0406C19.4183 23.6251 21.7806 23.6413 23.8912 23.3409C23.8912 23.4059 23.8912 23.4627 23.8912 23.5277C21.5939 23.893 19.0854 23.8118 17.0316 23.2273C15.0265 22.659 12.0066 20.9949 15.1969 19.0547Z" fill="white"/>
<path fill-rule="evenodd" clip-rule="evenodd" d="M24.9637 34.5595C24.9962 34.5514 25.0368 34.5433 25.0693 34.5433C25.0287 34.5514 24.9962 34.5595 24.9637 34.5595ZM20.0605 17.2603C16.1639 18.4292 13.347 21.7982 13.347 25.7678C13.347 30.533 17.3978 34.4296 22.5121 34.7057L22.4797 34.8437C17.13 34.8193 12.795 30.7604 12.795 25.7678C12.795 22.6181 14.516 19.8418 17.1299 18.2182L17.268 18.1532C18.169 17.7392 19.1026 17.4388 20.0605 17.2603Z" fill="white"/>
<path fill-rule="evenodd" clip-rule="evenodd" d="M25.1568 17.3749C26.959 23.1223 26.2203 29.1215 23.9797 35.421L22.7864 36.3546C24.8321 27.4248 25.0026 22.1644 23.6793 17.107C24.1745 17.1638 24.6697 17.2531 25.1568 17.3749ZM20.9923 9.63037C22.2993 11.2945 23.3303 12.975 24.1177 14.6716C23.7037 14.5985 23.2816 14.5417 22.8676 14.5092C22.3155 12.975 21.6417 11.4082 20.8381 9.71155L20.9923 9.63037Z" fill="white"/>
<path fill-rule="evenodd" clip-rule="evenodd" d="M23.5332 37.1009C26.6099 34.1216 28.2984 32.6035 32.7876 33.7319V31.9785C27.8682 31.2154 25.7981 33.3504 23.5332 37.1009Z" fill="white"/>
<path fill-rule="evenodd" clip-rule="evenodd" d="M24.0215 35.372C27.5122 30.6392 29.8096 29.381 35.3541 29.5433V21.3929C31.9933 21.0926 28.5269 21.9612 26.2783 24.429C28.3402 23.1789 31.4088 22.3103 34.1039 22.6431V28.1389C28.5919 28.4474 26.4 30.2415 24.0215 35.372Z" fill="white"/>
<path fill-rule="evenodd" clip-rule="evenodd" d="M17.0007 17.5766C21.1652 15.6527 26.1334 16.0505 31.0772 19.4762L31.2477 19.3464C27.2293 15.0357 21.7172 13.8505 15.6856 16.3184L17.0007 17.5766Z" fill="white"/>
<path d="M66.2988 13.8753C65.6537 13.3215 64.9747 12.9049 64.2568 12.6304C63.539 12.3511 62.7872 12.2139 61.9966 12.2139C60.4639 12.2139 59.2222 12.7089 58.2618 13.7038C57.3015 14.6937 56.8213 15.9827 56.8213 17.5608C56.8213 19.0899 57.2869 20.3494 58.223 21.3394C59.1591 22.3294 60.3329 22.8293 61.7589 22.8293C62.5883 22.8293 63.3789 22.6823 64.1259 22.3833C64.8728 22.0893 65.5955 21.6384 66.2843 21.0405V23.6429C65.6731 24.0888 65.0038 24.4172 64.2859 24.6377C63.5632 24.8583 62.7823 24.9661 61.9432 24.9661C60.8713 24.9661 59.8818 24.7897 58.9748 24.4368C58.0678 24.0839 57.2675 23.5595 56.5788 22.8685C55.8949 22.1922 55.371 21.3933 55.0073 20.4769C54.6386 19.5604 54.4592 18.5802 54.4592 17.5412C54.4592 16.5022 54.6435 15.5318 55.0073 14.6153C55.3759 13.7038 55.9046 12.9049 56.5982 12.2139C57.2918 11.5179 58.0921 10.9935 58.9894 10.6358C59.8867 10.278 60.8616 10.1016 61.9044 10.1016C62.729 10.1016 63.5099 10.2241 64.2568 10.4642C65.0038 10.7044 65.7265 11.072 66.4298 11.562L66.2988 13.8753Z" fill="#1D1D1D"/>
<path d="M69.1212 24.5841V10.4351H71.396V15.6546H78.2835V10.4351H80.5583V24.5841H78.2835V17.7129H71.396V24.5841H69.1212Z" fill="#1D1D1D"/>
<path d="M85.9077 18.2569V24.5889H83.7736V10.4399H86.9505C87.8818 10.4399 88.6045 10.5037 89.1186 10.6213C89.6327 10.7438 90.0693 10.9447 90.433 11.229C90.8647 11.5721 91.1994 12.0131 91.4371 12.5522C91.6747 13.0913 91.7911 13.6844 91.7911 14.3313C91.7911 15.4634 91.5195 16.3505 90.9763 16.9925C90.433 17.6345 89.6327 18.0168 88.5754 18.1491L93.3966 24.5841H90.8259L86.1696 18.252H85.9077V18.2569ZM86.0532 16.4681H86.4655C87.6684 16.4681 88.4687 16.326 88.8664 16.0417C89.2593 15.7575 89.4581 15.2576 89.4581 14.5322C89.4581 13.753 89.2447 13.2041 88.8227 12.8855C88.4008 12.567 87.615 12.4052 86.4655 12.4052H86.0532V16.4681Z" fill="#1D1D1D"/>
<path d="M94.7853 24.5841V10.4351H97.0601V24.5841H94.7853Z" fill="#1D1D1D"/>
<path d="M99.5275 21.7564L101.346 20.9036C101.516 21.5359 101.836 22.0162 102.292 22.3494C102.753 22.6827 103.34 22.8493 104.053 22.8493C104.727 22.8493 105.265 22.6582 105.663 22.2808C106.061 21.8985 106.26 21.3937 106.26 20.7517C106.26 19.9186 105.576 19.1785 104.213 18.5267C104.024 18.4287 103.873 18.3601 103.771 18.316C102.229 17.5563 101.201 16.8702 100.687 16.2527C100.173 15.6351 99.9155 14.8853 99.9155 13.9982C99.9155 12.8465 100.304 11.9104 101.08 11.1949C101.856 10.4794 102.869 10.1216 104.126 10.1216C105.159 10.1216 106.022 10.3225 106.716 10.7244C107.409 11.1263 107.894 11.7046 108.161 12.4593L106.381 13.3856C106.1 12.9396 105.794 12.6162 105.459 12.4103C105.125 12.2045 104.742 12.1016 104.305 12.1016C103.694 12.1016 103.209 12.2633 102.845 12.5868C102.486 12.9102 102.307 13.3415 102.307 13.8806C102.307 14.7334 103.097 15.5224 104.679 16.2576C104.8 16.3164 104.897 16.3605 104.965 16.3948C106.347 17.0368 107.298 17.669 107.817 18.2865C108.336 18.9041 108.593 19.6686 108.593 20.59C108.593 21.928 108.176 22.9964 107.341 23.7854C106.507 24.5745 105.377 24.9714 103.956 24.9714C102.763 24.9714 101.788 24.6921 101.026 24.1383C100.265 23.5796 99.7651 22.7856 99.5275 21.7564Z" fill="#1D1D1D"/>
<path d="M115.606 12.3905V24.5889H113.332V12.3905H109.611V10.4399H119.312V12.3905H115.606Z" fill="#1D1D1D"/>
<path d="M126.961 24.5841V10.4351H134.775V12.3856H129.236V15.9143H134.775V17.9335H129.236V24.5841H126.961Z" fill="#1D1D1D"/>
<path d="M146.495 24.5842L144.909 20.9428H139.36L137.735 24.5842H135.344L142.125 9.87158L148.896 24.5842H146.495ZM140.204 19.0265H144.108L142.673 15.7968C142.59 15.591 142.503 15.3557 142.416 15.0862C142.328 14.8166 142.236 14.5226 142.149 14.1942C142.071 14.503 141.989 14.7921 141.906 15.0568C141.819 15.3263 141.732 15.5714 141.644 15.7968L140.204 19.0265Z" fill="#1D1D1D"/>
<path d="M161.636 17.6C161.612 17.4922 161.568 17.1883 161.51 16.6933C161.462 16.2816 161.413 15.9386 161.374 15.669C161.316 15.9925 161.234 16.3111 161.132 16.6345C161.025 16.958 160.894 17.2863 160.734 17.6196L157.072 25.1572L153.41 17.4628C153.255 17.1491 153.124 16.8404 153.012 16.5463C152.901 16.2522 152.804 15.9582 152.721 15.669C152.717 15.9631 152.692 16.2767 152.649 16.6002C152.605 16.9237 152.547 17.2667 152.464 17.6196L150.961 24.5887H148.865L152.173 9.8418L156.306 18.7713C156.369 18.9134 156.466 19.1487 156.597 19.4771C156.728 19.8054 156.883 20.2122 157.072 20.6925C157.208 20.2857 157.416 19.7711 157.703 19.1438C157.78 18.9772 157.838 18.8497 157.872 18.7566L161.908 9.83691L165.293 24.5838H163.179L161.636 17.6Z" fill="#1D1D1D"/>
<path d="M167.156 24.5841V10.4351H169.431V24.5841H167.156Z" fill="#1D1D1D"/>
<path d="M172.705 24.5841V10.4351H174.98V22.5257H180.068V24.5841H172.705Z" fill="#1D1D1D"/>
<path d="M184.928 24.5841V18.1099L180.213 10.4351H182.604L185.539 15.238C185.607 15.3605 185.699 15.5222 185.801 15.7232C185.907 15.9241 186.014 16.1397 186.121 16.3701C186.208 16.1446 186.305 15.9339 186.402 15.733C186.499 15.532 186.606 15.3507 186.712 15.1841L189.724 10.4399H191.999L187.178 18.1148V24.589H184.928V24.5841Z" fill="#1D1D1D"/>
<path d="M81.509 32.5089C81.4944 32.4403 81.4702 32.254 81.4314 31.9502C81.4023 31.6953 81.3732 31.4846 81.3489 31.318C81.315 31.5189 81.2616 31.7149 81.1986 31.911C81.1355 32.1119 81.0531 32.3129 80.9561 32.5187L78.7006 37.1648L76.4452 32.4256C76.3531 32.2295 76.2706 32.0433 76.2027 31.862C76.1348 31.6806 76.0718 31.4993 76.0233 31.318C76.0184 31.4993 76.0039 31.6904 75.9796 31.8914C75.9554 32.0923 75.9166 32.3031 75.8632 32.5187L74.9368 36.8119H73.6466L75.6837 27.7256L78.2302 33.2244C78.269 33.3127 78.3272 33.4548 78.4096 33.6606C78.4921 33.8616 78.5891 34.1115 78.7006 34.4105C78.7831 34.1605 78.9141 33.8419 79.0887 33.4597C79.1372 33.3568 79.1711 33.2783 79.1954 33.2195L81.6836 27.7256L83.7692 36.8119H82.4693L81.509 32.5089Z" fill="#1D1D1D"/>
<path d="M91.428 36.8115V28.0977H92.8298V36.8115H91.428Z" fill="#1D1D1D"/>
<path d="M101.361 36.8113V27.7495L106.842 33.0768C106.993 33.2288 107.143 33.3905 107.298 33.5571C107.453 33.7287 107.613 33.9198 107.783 34.1354V28.0926H109.078V37.1495L103.486 31.7242C103.335 31.5772 103.19 31.4203 103.054 31.2586C102.913 31.0969 102.782 30.9253 102.656 30.7489V36.8113H101.361Z" fill="#1D1D1D"/>
<path d="M117.59 36.8115V28.0977H118.992V36.8115H117.59Z" fill="#1D1D1D"/>
<path d="M127.03 35.0675L128.15 34.5431C128.257 34.9303 128.451 35.2292 128.732 35.4351C129.013 35.6409 129.377 35.7438 129.818 35.7438C130.236 35.7438 130.565 35.6262 130.813 35.391C131.06 35.1557 131.181 34.8421 131.181 34.45C131.181 33.9354 130.759 33.4796 129.92 33.0826C129.804 33.0238 129.712 32.9797 129.649 32.9503C128.698 32.4798 128.063 32.0583 127.747 31.681C127.432 31.3036 127.272 30.838 127.272 30.2891C127.272 29.5785 127.51 29.0051 127.99 28.564C128.465 28.1229 129.091 27.9023 129.867 27.9023C130.502 27.9023 131.036 28.0249 131.463 28.2748C131.89 28.5248 132.185 28.8776 132.35 29.3432L131.254 29.9166C131.08 29.6422 130.89 29.4412 130.687 29.3138C130.483 29.1864 130.245 29.1227 129.979 29.1227C129.6 29.1227 129.304 29.2207 129.081 29.4216C128.858 29.6226 128.747 29.8872 128.747 30.2205C128.747 30.7449 129.232 31.235 130.206 31.6859C130.279 31.7202 130.337 31.7496 130.381 31.7692C131.235 32.1662 131.817 32.5533 132.137 32.9356C132.457 33.313 132.612 33.7884 132.612 34.3569C132.612 35.1802 132.355 35.837 131.841 36.3222C131.327 36.8073 130.633 37.0524 129.755 37.0524C129.023 37.0524 128.417 36.8809 127.951 36.5378C127.485 36.1898 127.175 35.7046 127.03 35.0675Z" fill="#1D1D1D"/>
<path d="M143.452 29.2984V36.8115H142.05V29.2984H139.756V28.0977H145.732V29.2984H143.452Z" fill="#1D1D1D"/>
<path d="M154.633 32.9104V36.8115H153.318V28.0977H155.273C155.846 28.0977 156.292 28.1369 156.607 28.2104C156.922 28.2839 157.194 28.4113 157.417 28.5878C157.684 28.7985 157.892 29.068 158.038 29.4013C158.183 29.7346 158.256 30.1022 158.256 30.4991C158.256 31.2 158.091 31.744 157.757 32.1409C157.422 32.5379 156.932 32.7732 156.277 32.8516L159.246 36.8164H157.66L154.788 32.9153H154.633V32.9104ZM154.725 31.8077H154.977C155.719 31.8077 156.214 31.7195 156.457 31.5479C156.699 31.3715 156.82 31.0627 156.82 30.6167C156.82 30.1365 156.689 29.7983 156.428 29.6022C156.166 29.4062 155.681 29.3082 154.977 29.3082H154.725V31.8077Z" fill="#1D1D1D"/>
<path d="M168.452 36.8115V32.8222L165.547 28.0928H167.021L168.831 31.0529C168.874 31.1264 168.928 31.2294 168.991 31.3519C169.054 31.4744 169.122 31.6067 169.19 31.7489C169.243 31.6116 169.301 31.4793 169.364 31.3568C169.427 31.2343 169.49 31.1216 169.553 31.0186L171.411 28.0977H172.813L169.844 32.8271V36.8164H168.452V36.8115Z" fill="#1D1D1D"/>
</svg>
